<?xml version="1.0" encoding="UTF-8"?><svg id="uuid-8ec13e84-e48d-4827-91ed-7e6509db64e6" xmlns="http://www.w3.org/2000/svg" viewBox="0 0 9.71 19.05"><g id="uuid-acce6345-7677-4b3f-b454-8a4589de10e7"><path d="M0,0h4.65c2.68,0,4.41,1.66,4.41,4.56,0,2.61-1.26,3.69-2.39,4.08,1.48.49,3.04,1.86,3.04,4.83,0,3.36-1.96,5.57-5.23,5.57H0V0ZM3.97,8.06c2.49,0,3.48-1.16,3.48-3.35,0-2-1.05-3.33-3.17-3.33H1.59v6.68h2.38ZM1.59,17.67h2.75c2.44,0,3.74-1.53,3.74-4.16s-1.48-4.07-4.15-4.07H1.59v8.23Z" style="fill:#f5efe3;"/></g></svg>