<?xml version="1.0" encoding="UTF-8"?><svg id="uuid-b47b9294-f764-4aca-9032-12e66fac3c2a" xmlns="http://www.w3.org/2000/svg" xmlns:xlink="http://www.w3.org/1999/xlink" viewBox="0 0 58.26 62.97"><defs><clipPath id="uuid-4de792bd-2941-476d-8e1b-68ad1f16eaec"><path d="M42.72,43.26c9.07-23.13-2.47-32.18-32.01-25.07-8.6,25.24-.25,31.82,32.01,25.07Z" style="fill:#f5efe3;"/></clipPath></defs><g id="uuid-015b0c51-d8aa-42d7-892f-4d6c91944f9b"><path d="M42.72,43.26c9.07-23.13-2.47-32.18-32.01-25.07-8.6,25.24-.25,31.82,32.01,25.07Z" style="fill:#f5efe3;"/><g style="clip-path:url(#uuid-4de792bd-2941-476d-8e1b-68ad1f16eaec);"><rect width="58.26" height="62.97" style="fill:#f5efe3;"/><path d="M42.72,43.26c9.07-23.13-2.47-32.18-32.01-25.07-8.6,25.24-.25,31.82,32.01,25.07Z" style="fill:#f5efe3;"/></g><path d="M25.01,21.07v1.02c-2.03,4.75-3.56,10.33-4.21,17.18h-1.2c.49-5.72,2.05-12.15,4.17-16.94h-4.78v-1.26h6.02Z"/><path d="M26.17,35.24v-2.25c0-2.42.83-3.15,1.54-3.62-.82-.53-1.3-1.5-1.3-3.28v-1.34c0-2.28.84-3.9,2.9-3.9,1.83,0,2.77,1.35,2.77,3.87v1.24c0,2.33-.64,2.98-1.38,3.42.93.47,1.55,1.4,1.55,3.56v2.26c0,2.67-.81,4.31-3.05,4.31-2.11,0-3.03-1.6-3.03-4.25ZM31.09,35.25v-2.37c0-1.96-.57-2.85-1.87-2.85s-1.88.85-1.88,2.98v2.17c0,1.75.5,3.08,1.87,3.08,1.52,0,1.89-1.32,1.89-3.01ZM27.57,24.74v1.59c0,1.44.47,2.48,1.68,2.48,1.11,0,1.65-.76,1.65-2.52v-1.58c0-1.43-.28-2.64-1.66-2.64-1.25,0-1.68,1.11-1.68,2.67Z"/></g></svg>