<?xml version="1.0" encoding="UTF-8"?><svg id="uuid-cb4ed3e1-9334-43dd-a642-28148186e106" xmlns="http://www.w3.org/2000/svg" xmlns:xlink="http://www.w3.org/1999/xlink" viewBox="0 0 58.26 79"><defs><clipPath id="uuid-5d28a86f-a420-4bc3-a11b-865e346365d1"><path d="M38.48,59.66c9.07-23.13-2.47-32.18-32.01-25.07-8.6,25.24-.25,31.82,32.01,25.07Z" style="fill:#f5efe3;"/></clipPath></defs><g id="uuid-5294876c-c6d0-438c-8d43-e8827c9bee92"><path d="M38.48,59.66c9.07-23.13-2.47-32.18-32.01-25.07-8.6,25.24-.25,31.82,32.01,25.07Z" style="fill:#f5efe3;"/><g style="clip-path:url(#uuid-5d28a86f-a420-4bc3-a11b-865e346365d1);"><rect y="16.02" width="58.26" height="62.97" style="fill:#f5efe3;"/><path d="M38.48,59.66c9.07-23.13-2.47-32.18-32.01-25.07-8.6,25.24-.25,31.82,32.01,25.07Z" style="fill:#f5efe3;"/></g><path d="M25.02,41.71v9.72c0,3.34-1.22,4.45-3.04,4.45-1.66,0-2.97-1.06-2.97-4.4v-9.71c0-3.62,1.52-4.54,3.06-4.54s2.96.91,2.96,4.48ZM20.19,41.71v9.77c0,2.12.57,3.08,1.84,3.08,1.1,0,1.8-.64,1.8-3.14v-9.7c0-2.43-.78-3.16-1.82-3.16s-1.82.62-1.82,3.15Z"/><path d="M27.25,10.55c0-3.66.06-7.17.11-9.12h-.04c-.71,3.17-2.69,11.64-4.31,17.62h-1.61c-1.22-5.05-3.3-14.19-4.03-17.65h-.06c.11,2.21.2,6.48.2,9.74v7.91h-1.55V0h2.39c1.74,6.24,3.45,14.21,3.94,16.6h.03c.35-1.87,2.44-10.58,4.15-16.6h2.39v19.05h-1.6v-8.5Z" style="fill:#f5efe3;"/></g></svg>