<?xml version="1.0" encoding="UTF-8"?><svg id="uuid-6e4187de-6ec1-4e62-be21-b47d17caa265" xmlns="http://www.w3.org/2000/svg" viewBox="0 0 13.97 19.9"><g id="uuid-4086d778-f7cf-481b-b7cd-8d9951383ad8"><path d="M13.92,3.59c-.38-1.31-2.57-.64-3.57-.8.12-1.5-.88-1.12-1.95-1.16-.07-.95-.64-1.75-1.68-1.61-.78.1-1.15.91-1.2,1.61-.45.05-1.24-.13-1.61.15-.38.28-.16.99-.3,1.05-1.15.18-3.39-.61-3.61,1.07l.07,14.97c.21.56.63.85,1.22.92,3,.32,6.56-.22,9.62.11,1.14-.08,2.72.41,3.05-1.1-.03-5.06.06-10.14-.04-15.19ZM5.82,1.96c.17-.09.15-.74.28-1.01.11-.3.37-.53.88-.53.44,0,.66.08.91.5.18.69.12.91.17,1,.21.34,1.66-.16,1.85.24.04.09.07,1.75.04,1.83,0,.03-.07.06-.09.09l-5.72.04-.06-1.96c.18-.35,1.43-.04,1.74-.21ZM1.78,3.38v.22c.06-.13.23-.35.37-.37.52-.09-.07.25-.07.45.44-.56.88-.46,1.53-.45.16.07-.11.97.26,1.2.59.36,5.11-.13,6.1.04.39-.09.34-.65.37-.67.09-.07,2.17-.04,2.28,0,0,0,.13.12.13.13v14.52c-.09.42-.83.18-1.14.24.07-.11.55-.25.45-.41-.49.5-1.09.44-1.74.39.77-.2,1.79-.34,2.08-1.22-.46.85-1.47.8-2.21,1.23l-8.53-.11c-.41-.07-.36-.39-.39-.73-.21-2.34.06-5.39.04-7.82-.01-1.63-.37-4.68-.11-6.14.06-.33.29-.43.58-.51ZM1.55,3.2c-.73.19-1.1.93-1.1,1.65.05-.25.3-.73.45-.95,0,.78-.5,1.5-.37,2.28l.34-1.16c.08,1.21-.27,2.38-.39,3.57.09-1.13-.24-2.65-.02-3.74-.16-.89.01-1.75,1.1-1.65ZM13.55,18.67c-.13.64-.56.78-1.14.8-3.59.18-7.42-.31-11.04-.11-.5-.05-.84-.32-.92-.82.33.14.25-.1.26-.3,0-.02,0-.05,0-.07-.07-.11-.14-.07-.26-.07-.15-2.98.11-6.08,0-9.07l.43-2.34c.01,1.29.08,2.58.09,3.87.03,2.24-.28,5.54,0,7.63.05.37.24.66.62.73l10.85.15c.58-.08.63-.36.65-.88.24-4.66-.3-9.6-.04-14.29-.06-.15-.15-.3-.32-.36-.5-.15-2.06.09-2.36-.04-.06-.03-.08-.2-.06-.24.06-.13,2.63-.07,2.82.02.53.24.42,1.25.43,1.74.05,4.55-.12,9.11-.04,13.66Z" style="fill:#f5efe3;"/><path d="M10.94,15.39c-2.39.1-4.89-.14-7.26,0-.26.01-1.21-.03-.75.37,2.18-.04,4.37.04,6.55-.04.23,0,1.96.02,1.46-.34Z" style="fill:#f5efe3;"/><path d="M2.94,11.32c-.24.07-.15.25.07.3,1.23.24,5.85.06,7.3-.04.2-.01.98-.02.6-.3-1.81.02-3.62-.03-5.43,0-.45,0-2.27-.04-2.54.04Z" style="fill:#f5efe3;"/><path d="M10.08,14.12c-2.08,0-4.42-.08-6.47.04-.23.01-1.19.01-.6.3,2.43-.21,5.37.29,7.75,0,.1-.01.37-.04.39-.13.08-.3-.89-.21-1.07-.21Z" style="fill:#f5efe3;"/><path d="M2.94,6.86c-.69-.18.19,1.4.3,1.46.15.09.25.01.36-.09.08-.08,1.23-1.77,1.27-1.87.08-.19.12-.4-.17-.36-.21.03-1.11,1.33-1.27,1.57-.05,0-.34-.67-.49-.71Z" style="fill:#f5efe3;"/><path d="M6.72,6.79c1.17,0,2.88.02,4-.11.09-.01.59-.1.34-.22-.16-.08-1.34-.04-1.61-.04-.76,0-3.4-.06-3.97.07-.1.03-.21.08-.17.21.05.15,1.17.09,1.4.09Z" style="fill:#f5efe3;"/><path d="M2.9,12.92c.1.04,1.28,0,1.5,0,.34,0,2.89-.12,2.99-.22.05-.05-.05-.1-.07-.11-.22-.06-1.31-.04-1.61-.04-.48,0-2.42-.05-2.73.04-.09.02-.2.14-.17.24.03.02.07.08.09.09Z" style="fill:#f5efe3;"/><path d="M5.41,8.06l4.4-.21c-.85-.08-1.71-.1-2.56-.09-.25,0-1.78,0-1.87.04-.14.05-.11.22.04.26Z" style="fill:#f5efe3;"/><path d="M3.16,3.35c-.21.01-.71.21-.92.32.37.03.79-.14,1.07-.32-.05,0-.1,0-.15,0Z" style="fill:#f5efe3;"/><path d="M1.38,19.12c-.6-.43-.58-1.08-.64-1.76-.08.26-.02.54-.04.8,0,.02,0,.05,0,.07.06.38.24.85.67.88Z" style="fill:#f5efe3;"/><path d="M9.58,3.81l-5.11.02c-.19-.06-.17-.98-.09-1.14.14-.31.81-.23,1.09-.34-.23-.04-.49-.09-.73-.06-.08,0-.31.07-.37.11-.26.18-.32,1.48-.04,1.61l5.26-.21Z" style="fill:#f5efe3;"/><path d="M6.47,1.03s-.02-.01-.04.04c.03,0,.04,0,.04-.04Z" style="fill:#f5efe3;"/><path d="M7.63,1.59c.05-.28-.05-.6-.3-.75-.26-.15-.41-.14-.67,0-.07.04-.15.12-.19.19,0,.03,0,.03-.04.04-.44,1.01,1.04,1.34,1.2.52ZM6.74,1.21l.29-.1.27.1c.41.69-.99.73-.56,0Z" style="fill:#f5efe3;"/></g></svg>