<?xml version="1.0" encoding="UTF-8"?><svg id="uuid-8f0d13db-4121-47f4-b9ea-f3372290b5cc" xmlns="http://www.w3.org/2000/svg" viewBox="0 0 19.82 19.77"><g id="uuid-eb9f3766-4d72-461d-acb3-9375046b2f68"><path d="M9.92,8.3C6.54,11.42,3.04,14.64.44,18.84c.08.25.19.41.31.47.23.1.55-.11.81-.28.05-.03.1-.06.14-.09,2.79-1.74,5.22-4.14,7.57-6.47.63-.63,1.29-1.27,1.94-1.9.38-.37.75-.76,1.11-1.15.51-.55,1.04-1.11,1.62-1.61l-1.26-2.08c-.91.87-1.84,1.73-2.75,2.57Z" style="stroke:#000; stroke-miterlimit:10; stroke-width:.25px;"/><path d="M14.12,7.57h0c-.18-.44-.44-.82-.72-1.18l.72,1.18Z" style="stroke:#000; stroke-miterlimit:10; stroke-width:.25px;"/><path d="M18.54.66c-.82-.4-1.63-.25-2.29.43-.25.26-.44.58-.65.91-.25.4-.5.81-.86,1.12-.57.5-1.25.91-1.93.13-.18-.2-.32-.29-.48-.29-.15,0-.31.13-.51.39.23.91.77,1.57,1.34,2.27.45.55.92,1.13,1.22,1.84v.07s.01.05.01.05c.35.18.58.49.8.79.12.17.24.32.37.46.13.13.26.12.42.1.06,0,.12-.01.19-.01.02-.1.07-.18.11-.25.08-.14.14-.24.07-.48-.49-1.68-.21-2.07,1.22-3,.1-.07.21-.13.32-.2.77-.48,1.5-.93,1.54-2.15.03-1.03-.11-1.8-.89-2.18Z" style="stroke:#000; stroke-miterlimit:10; stroke-width:.25px;"/><path d="M18.64.37c-.92-.45-1.84-.28-2.57.49-.27.28-.48.63-.69.96-.24.4-.48.77-.8,1.06-.58.51-1.07.73-1.58.16-.23-.26-.46-.39-.68-.38-.31.02-.56.29-.75.56l-.05.06.02.08c.19.82.61,1.45,1.06,2.03-.94.9-1.91,1.8-2.85,2.67C6.34,11.2,2.81,14.46.17,18.72l-.04.06.02.07c.11.39.27.63.49.73.08.03.16.05.23.05.28,0,.57-.19.8-.34.05-.03.09-.06.14-.09,2.82-1.75,5.26-4.17,7.62-6.51.63-.63,1.28-1.27,1.93-1.9.39-.37.76-.77,1.12-1.16.54-.58,1.1-1.17,1.7-1.68l.1-.08c.28.15.48.41.68.69.12.17.25.34.39.49.21.22.44.2.62.18.09,0,.18-.02.26,0l.2.06-.03-.23c-.01-.07.02-.13.08-.23.09-.16.21-.37.1-.75-.44-1.5-.25-1.75,1.1-2.63.1-.07.21-.13.31-.2.77-.48,1.64-1.02,1.68-2.41.03-.96-.07-2-1.05-2.48ZM12.32,9.42c-.36.38-.73.78-1.11,1.15-.65.63-1.3,1.27-1.94,1.9-2.35,2.33-4.78,4.73-7.57,6.47-.04.03-.09.06-.14.09-.26.17-.58.38-.81.28-.13-.06-.23-.21-.31-.47,2.61-4.2,6.1-7.42,9.48-10.54.91-.83,1.84-1.7,2.75-2.57l1.26,2.08c-.57.49-1.1,1.06-1.62,1.61ZM14.12,7.57l-.72-1.18c.28.36.54.75.72,1.18h0ZM19.42,2.84c-.04,1.21-.77,1.67-1.54,2.15-.11.07-.21.13-.32.2-1.43.93-1.71,1.32-1.22,3,.07.24,0,.34-.07.48-.04.07-.09.15-.11.25-.06,0-.13,0-.19.01-.16.02-.29.03-.42-.1-.13-.13-.25-.29-.37-.46-.22-.3-.45-.62-.8-.79v-.12c-.31-.71-.78-1.28-1.23-1.84-.57-.7-1.11-1.35-1.34-2.27.2-.26.36-.38.51-.39.15,0,.3.09.48.29.68.78,1.36.37,1.93-.13.36-.31.61-.72.86-1.12.21-.33.4-.65.65-.91.65-.68,1.47-.84,2.29-.43.78.38.92,1.15.89,2.18Z" style="stroke:#000; stroke-miterlimit:10; stroke-width:.25px;"/></g></svg>