<?xml version="1.0" encoding="UTF-8"?><svg id="uuid-f32839bd-2ce7-49e0-aebb-f79a5008bb4a" xmlns="http://www.w3.org/2000/svg" viewBox="0 0 9.38 19.05"><g id="uuid-ed61f989-083a-4d5c-a69e-b179bcfcad06"><path d="M1.6,10.04v9.01H0V0h4.65c3.1,0,4.67,1.82,4.67,4.81s-1.37,4.1-2.58,4.5c1.87.61,2.36,2.28,2.36,4.89v.76c0,1.63.04,3.06.28,4.09h-1.63c-.26-.87-.27-2.63-.27-4.14v-.63c0-2.77-.54-4.24-3.27-4.24H1.6ZM1.6,8.62h2.74c2.41,0,3.31-1.47,3.31-3.78,0-2.01-.92-3.42-3.16-3.42H1.6v7.21Z" style="fill:#f5efe3;"/></g></svg>