<?xml version="1.0" encoding="UTF-8"?><svg id="uuid-899c4dd5-cf23-4e59-87d7-6ae0bd179467" xmlns="http://www.w3.org/2000/svg" viewBox="0 0 162.59 30.78"><g id="uuid-e2c816b4-e055-47df-b2cd-71d73bac85d0"><path d="M1.97,4.78h3.97c4.21,0,6.2,3.04,6.2,8.98,0,6.48-1.77,10.06-6.52,10.06H1.97V4.78ZM3.58,22.41h1.94c3.78,0,4.95-3.04,4.95-8.55s-1.48-7.65-4.93-7.65h-1.97v16.19Z" style="fill:#f5efe3;"/><path d="M23.98,16.6c0,4.9-1.59,7.48-4.67,7.48s-4.69-2.5-4.69-7.45,1.84-7.13,4.75-7.13,4.61,2.36,4.61,7.09ZM16.25,16.66c0,4.14,1.13,6.03,3.07,6.03s3.05-1.93,3.05-6.06c0-3.79-1.04-5.7-3.05-5.7-1.9,0-3.06,1.63-3.06,5.74Z" style="fill:#f5efe3;"/><path d="M34.91,19.71c-.06.6-.38,4.38-4.3,4.38-3.55,0-4.54-3.26-4.54-7.32s1.31-7.25,4.73-7.25c3.89,0,4.1,3.7,4.1,4.3h-1.62c-.03-.58-.27-2.9-2.49-2.9s-3.1,2.45-3.1,5.84c0,3.68.89,5.94,2.98,5.94,2.23,0,2.53-2.25,2.63-2.98h1.6Z" style="fill:#f5efe3;"/><path d="M45.9,20.08c0,1.67,0,3.09.03,3.75h-1.5c-.06-.4-.09-.93-.09-2.01-.46,1.43-1.7,2.26-3.43,2.26-1.5,0-3.52-.55-3.52-4.2v-10.14h1.59v9.75c0,1.96.58,3.18,2.36,3.18,1.67,0,2.96-1.06,2.96-4.41v-8.51h1.59v10.34Z" style="fill:#f5efe3;"/><path d="M49.33,13.97c0-2.4,0-3.54-.03-4.23h1.52c.06.46.07,1.22.07,1.94.53-1.28,1.51-2.17,3.17-2.17,1.45,0,2.51.61,2.94,2.17.47-1.19,1.58-2.17,3.4-2.17,1.66,0,3.35.79,3.35,4.04v10.27h-1.56v-9.98c0-1.54-.43-2.91-2.18-2.91-1.96,0-2.66,1.81-2.66,3.76v9.12h-1.57v-9.92c0-1.91-.63-2.96-2.13-2.96-1.82,0-2.74,1.77-2.74,4v8.88h-1.57v-9.86Z" style="fill:#f5efe3;"/><path d="M68.12,16.99c0,3.13.57,5.7,2.97,5.7s2.75-2.37,2.83-2.77h1.57c-.03.33-.46,4.17-4.4,4.17s-4.55-3.79-4.55-7.27c0-4.46,1.46-7.3,4.67-7.3,3.56,0,4.39,3.05,4.39,6.51,0,.18,0,.58-.03.97h-7.44ZM74.01,15.68c0-2.82-.65-4.77-2.83-4.77-2.85,0-2.98,3.83-3.03,4.77h5.85Z" style="fill:#f5efe3;"/><path d="M78.34,14.09c0-2.88-.02-3.73-.03-4.35h1.52c.03.34.07.89.07,1.99.49-1.22,1.5-2.22,3.42-2.22s3.63,1.05,3.63,4.29v10.04h-1.59v-9.76c0-1.84-.67-3.12-2.38-3.12-2.15,0-3.04,1.46-3.04,4.63v8.25h-1.59v-9.74Z" style="fill:#f5efe3;"/><path d="M88.64,9.74h2.04v-3.84h1.55v3.84h2.56v1.39h-2.56v9.83c0,1.02.23,1.68,1.32,1.68.34,0,.81-.02,1.07-.08v1.25c-.43.16-1.08.21-1.54.21-1.43,0-2.39-.61-2.39-2.71v-10.18h-2.04v-1.39Z" style="fill:#f5efe3;"/><path d="M104.63,6.24h-4.31v-1.46h10.22v1.46h-4.31v17.59h-1.6V6.24Z" style="fill:#f5efe3;"/><path d="M113.75,3.88v7.72c.49-1.24,1.66-2.09,3.46-2.09,1.97,0,3.57,1.2,3.57,4.28v10.04h-1.59v-9.71c0-1.86-.6-3.17-2.46-3.17-2.12,0-2.97,1.78-2.97,4.47v8.41h-1.59V3.88h1.59Z" style="fill:#f5efe3;"/><path d="M125.13,16.99c0,3.13.57,5.7,2.97,5.7s2.75-2.37,2.83-2.77h1.57c-.03.33-.46,4.17-4.4,4.17s-4.55-3.79-4.55-7.27c0-4.46,1.46-7.3,4.67-7.3,3.56,0,4.39,3.05,4.39,6.51,0,.18,0,.58-.03.97h-7.44ZM131.02,15.68c0-2.82-.65-4.77-2.83-4.77-2.85,0-2.98,3.83-3.03,4.77h5.85Z" style="fill:#f5efe3;"/><path d="M135.35,13.97c0-2.4,0-3.54-.03-4.23h1.52c.06.46.07,1.22.07,1.94.53-1.28,1.5-2.17,3.17-2.17,1.45,0,2.51.61,2.94,2.17.47-1.19,1.58-2.17,3.4-2.17,1.66,0,3.35.79,3.35,4.04v10.27h-1.56v-9.98c0-1.54-.43-2.91-2.18-2.91-1.96,0-2.66,1.81-2.66,3.76v9.12h-1.57v-9.92c0-1.91-.63-2.96-2.13-2.96-1.82,0-2.74,1.77-2.74,4v8.88h-1.57v-9.86Z" style="fill:#f5efe3;"/><path d="M154.14,16.99c0,3.13.57,5.7,2.97,5.7s2.75-2.37,2.83-2.77h1.57c-.03.33-.46,4.17-4.4,4.17s-4.55-3.79-4.55-7.27c0-4.46,1.46-7.3,4.67-7.3,3.56,0,4.39,3.05,4.39,6.51,0,.18,0,.58-.03.97h-7.44ZM160.03,15.68c0-2.82-.65-4.77-2.83-4.77-2.85,0-2.98,3.83-3.03,4.77h5.85Z" style="fill:#f5efe3;"/></g></svg>