<?xml version="1.0" encoding="UTF-8"?><svg id="uuid-b13635a6-6e1d-4121-b267-3902132dd6a7" xmlns="http://www.w3.org/2000/svg" xmlns:xlink="http://www.w3.org/1999/xlink" viewBox="0 0 738.65 253.45"><defs><linearGradient id="uuid-ffa277b2-9915-4da0-ab2e-2caf8a25da40" x1="64.49" y1="127.22" x2="537.65" y2="127.22" gradientUnits="userSpaceOnUse"><stop offset="0" stop-color="#00a5d9"/><stop offset=".2" stop-color="#33338b"/><stop offset=".4" stop-color="#d63386"/><stop offset=".6" stop-color="#d84139"/><stop offset=".8" stop-color="#f9ea58"/><stop offset="1" stop-color="#219b5b"/></linearGradient><clipPath id="uuid-5f7509d3-8ed6-4f08-989f-79fbeae2c45f"><path d="M172,181.71c461.54,1.93,350.39,19.05,361.2-84.05,3.3-31.43,26.34-27.88-230.98-25.99-23.22.17-215,.28-234.12,3.76,20.04,121.57-63.56,105.58,103.9,106.28Z" style="fill:url(#uuid-ffa277b2-9915-4da0-ab2e-2caf8a25da40);"/></clipPath><linearGradient id="uuid-71af7ee9-c429-430e-ab8c-647681dc7a0f" x1="92.6" y1="126.72" x2="503.75" y2="126.72" gradientUnits="userSpaceOnUse"><stop offset="0" stop-color="red"/><stop offset=".17" stop-color="#ff8500"/><stop offset=".32" stop-color="#f9ea58"/><stop offset=".48" stop-color="#00ff28"/><stop offset=".62" stop-color="#00a5d9"/><stop offset=".77" stop-color="#33338b"/><stop offset=".89" stop-color="#d63386"/><stop offset="1" stop-color="#d84139"/></linearGradient></defs><g id="uuid-d8c663d4-c675-4e1b-ac57-6d728bd79500"><path d="M172,181.71c461.54,1.93,350.39,19.05,361.2-84.05,3.3-31.43,26.34-27.88-230.98-25.99-23.22.17-215,.28-234.12,3.76,20.04,121.57-63.56,105.58,103.9,106.28Z" style="fill:url(#uuid-ffa277b2-9915-4da0-ab2e-2caf8a25da40);"/><g style="clip-path:url(#uuid-5f7509d3-8ed6-4f08-989f-79fbeae2c45f);"><rect width="738.65" height="253.45" style="fill:url(#uuid-71af7ee9-c429-430e-ab8c-647681dc7a0f);"/></g><path d="M69.48,53.56c.14,2.1,1.2,3.72,3.42,3.72s3.26-1.11,3.26-3.58c0-2.16-.83-3.29-3.48-4.57-2.88-1.38-4.21-2.68-4.21-5.42,0-2.45,1.57-4.55,4.55-4.55,3.46,0,4.43,2.54,4.48,4.68h-1.59c-.09-.86-.37-3.28-2.97-3.28-2.01,0-2.85,1.4-2.85,3,0,1.99.89,2.93,3.33,4.1,3.3,1.59,4.4,3.2,4.4,5.9,0,3.02-1.64,5.11-4.96,5.11-3.61,0-4.84-2.39-5-5.12h1.62Z" style="fill:#f5efe3;"/><path d="M81.8,56.87v6.79h-1.57v-15.17c0-1.94,0-3.25-.03-4.13h1.52c.03.24.07,1.27.07,2.03.52-1.34,1.57-2.26,3.43-2.26,2.69,0,4.12,2.41,4.12,7.09s-1.74,7.48-4.52,7.48c-1.79,0-2.62-.89-3.02-1.83ZM87.72,51.29c0-3.61-.86-5.73-2.89-5.73-2.39,0-3.09,2.28-3.09,5.82s.38,5.88,2.93,5.88c2.01,0,3.05-2.39,3.05-5.97Z" style="fill:#f5efe3;"/><path d="M93.06,51.6c0,3.13.57,5.7,2.97,5.7s2.75-2.37,2.83-2.77h1.57c-.03.33-.46,4.17-4.4,4.17s-4.55-3.79-4.55-7.27c0-4.46,1.46-7.3,4.67-7.3,3.56,0,4.39,3.05,4.39,6.51,0,.18,0,.58-.03.97h-7.44ZM98.95,50.29c0-2.82-.65-4.77-2.83-4.77-2.85,0-2.98,3.83-3.03,4.77h5.85Z" style="fill:#f5efe3;"/><path d="M111.62,54.32c-.06.6-.38,4.38-4.3,4.38-3.55,0-4.54-3.26-4.54-7.32s1.31-7.26,4.73-7.26c3.89,0,4.1,3.7,4.1,4.3h-1.62c-.03-.58-.27-2.9-2.49-2.9s-3.1,2.45-3.1,5.84c0,3.68.89,5.94,2.98,5.94,2.23,0,2.53-2.25,2.63-2.98h1.6Z" style="fill:#f5efe3;"/><path d="M112.93,44.35h2.04v-3.84h1.55v3.84h2.56v1.39h-2.56v9.83c0,1.02.23,1.68,1.32,1.68.34,0,.81-.02,1.07-.08v1.25c-.43.16-1.08.21-1.54.21-1.43,0-2.39-.61-2.39-2.71v-10.18h-2.04v-1.39Z" style="fill:#f5efe3;"/><path d="M121.08,49.16c0-2.22,0-3.8-.03-4.81h1.52c.03.41.06,1.09.06,2.59.63-1.74,2.03-2.77,3.74-2.79v1.71c-2.47.13-3.72,1.97-3.72,4.53v8.05h-1.57v-9.28Z" style="fill:#f5efe3;"/><path d="M136.81,54.69c0,1.67,0,3.09.03,3.75h-1.5c-.06-.4-.09-.93-.09-2.01-.46,1.43-1.7,2.26-3.43,2.26-1.5,0-3.52-.55-3.52-4.2v-10.14h1.59v9.75c0,1.96.58,3.18,2.36,3.18,1.67,0,2.96-1.06,2.96-4.41v-8.51h1.59v10.34Z" style="fill:#f5efe3;"/><path d="M140.24,48.58c0-2.4,0-3.54-.03-4.23h1.52c.06.46.07,1.22.07,1.94.53-1.28,1.51-2.17,3.17-2.17,1.45,0,2.51.61,2.94,2.17.47-1.19,1.58-2.17,3.4-2.17,1.66,0,3.35.79,3.35,4.04v10.27h-1.56v-9.98c0-1.54-.43-2.91-2.18-2.91-1.96,0-2.66,1.81-2.66,3.76v9.12h-1.57v-9.92c0-1.91-.63-2.96-2.13-2.96-1.82,0-2.74,1.77-2.74,4v8.88h-1.57v-9.86Z" style="fill:#f5efe3;"/></g></svg>