<?xml version="1.0" encoding="UTF-8"?><svg id="uuid-4e77fc0c-80fe-453b-8f45-af42a801577a" xmlns="http://www.w3.org/2000/svg" xmlns:xlink="http://www.w3.org/1999/xlink" viewBox="0 0 482.76 62.5"><defs><clipPath id="uuid-6797ac47-f291-479b-87ca-e24bc1f0f4c8"><path d="M338.54,40.82c9.57-1.25,8.8-13.13,7.81-20.73-1.28-9.81-15.59-9.2-23.19-7.42-1.42.33-2.73.92-3.91,1.78-3.67,20.35-4.76,29.51,19.28,26.38Z" style="fill:none;"/></clipPath><clipPath id="uuid-bea7cc91-7c72-4906-8b4e-74d878888d8d"><path d="M294.09,40.08c9.57-1.25,8.8-13.13,7.81-20.73-1.28-9.81-15.59-9.2-23.19-7.42-1.42.33-2.73.92-3.91,1.78-3.67,20.35-4.76,29.51,19.28,26.38Z" style="fill:none;"/></clipPath><clipPath id="uuid-3c909238-daac-4219-9026-a24d522256fc"><path d="M249.63,40.08c9.57-1.25,8.8-13.13,7.81-20.73-1.28-9.81-15.59-9.2-23.19-7.42-1.42.33-2.73.92-3.91,1.78-3.67,20.35-4.76,29.51,19.28,26.38Z" style="fill:none;"/></clipPath><clipPath id="uuid-c2c853f6-71c4-4b28-a25b-a02470923cce"><path d="M205.17,40.08c9.57-1.25,8.8-13.13,7.81-20.73-1.28-9.81-15.59-9.2-23.19-7.42-1.42.33-2.73.92-3.91,1.78-3.67,20.35-4.76,29.51,19.28,26.38Z" style="fill:none;"/></clipPath><clipPath id="uuid-5aaa28f2-e370-45c5-ad95-5f268fa87bfc"><path d="M146.35,40.04c18.91,2.48,24.69-1.24,22.15-20.73-1.28-9.81-15.59-9.2-23.19-7.42-1.42.33-2.73.92-3.91,1.78-1.51,7.44-5.31,25.02,4.94,26.37Z" style="fill:none;"/></clipPath><clipPath id="uuid-2608d53a-21b0-4ac8-9091-c47fa25f0530"><path d="M101.89,40.04c18.91,2.48,24.69-1.24,22.15-20.73-1.28-9.81-15.59-9.2-23.19-7.42-1.42.33-2.73.92-3.91,1.78-1.51,7.44-5.31,25.02,4.94,26.37Z" style="fill:none;"/></clipPath><clipPath id="uuid-abb2158d-9320-42c1-a54e-351460506c68"><path d="M77.85,38.53c7.05-22.96-1.92-31.94-24.89-24.88-6.69,25.05-.2,31.58,24.89,24.88Z" style="fill:none;"/></clipPath><clipPath id="uuid-680966be-70e3-49c7-8dbe-82ee26bdc18f"><path d="M33.39,38.17c7.05-22.96-1.92-31.94-24.89-24.88-6.69,25.05-.2,31.58,24.89,24.88Z" style="fill:none;"/></clipPath></defs><g id="uuid-35a4bbcf-dece-471b-a370-145bc616754e"><rect x=".5" y="10.49" width="358.05" height="33.26" style="fill:none; stroke:#f5efe3; stroke-miterlimit:10;"/><g style="clip-path:url(#uuid-6797ac47-f291-479b-87ca-e24bc1f0f4c8);"><rect x="317.28" width="45.3" height="62.5" style="fill:#7a605f;"/><path d="M338.54,40.82c9.57-1.25,8.8-13.13,7.81-20.73-1.28-9.81-15.59-9.2-23.19-7.42-1.42.33-2.73.92-3.91,1.78-3.67,20.35-4.76,29.51,19.28,26.38Z" style="fill:none;"/></g><g style="clip-path:url(#uuid-bea7cc91-7c72-4906-8b4e-74d878888d8d);"><rect x="269.22" width="45.3" height="62.5" style="fill:#8d8485;"/><path d="M294.09,40.08c9.57-1.25,8.8-13.13,7.81-20.73-1.28-9.81-15.59-9.2-23.19-7.42-1.42.33-2.73.92-3.91,1.78-3.67,20.35-4.76,29.51,19.28,26.38Z" style="fill:none;"/></g><g style="clip-path:url(#uuid-3c909238-daac-4219-9026-a24d522256fc);"><rect x="224.77" width="45.3" height="62.5" style="fill:#886657;"/><path d="M249.63,40.08c9.57-1.25,8.8-13.13,7.81-20.73-1.28-9.81-15.59-9.2-23.19-7.42-1.42.33-2.73.92-3.91,1.78-3.67,20.35-4.76,29.51,19.28,26.38Z" style="fill:none;"/></g><g style="clip-path:url(#uuid-c2c853f6-71c4-4b28-a25b-a02470923cce);"><rect x="180.31" width="45.3" height="62.5" style="fill:#9c9072;"/><path d="M205.17,40.08c9.57-1.25,8.8-13.13,7.81-20.73-1.28-9.81-15.59-9.2-23.19-7.42-1.42.33-2.73.92-3.91,1.78-3.67,20.35-4.76,29.51,19.28,26.38Z" style="fill:none;"/></g><g style="clip-path:url(#uuid-5aaa28f2-e370-45c5-ad95-5f268fa87bfc);"><rect x="135.84" width="45.3" height="62.5" style="fill:#843b2d;"/><path d="M146.35,40.04c18.91,2.48,24.69-1.24,22.15-20.73-1.28-9.81-15.59-9.2-23.19-7.42-1.42.33-2.73.92-3.91,1.78-1.51,7.44-5.31,25.02,4.94,26.37Z" style="fill:none;"/></g><g style="clip-path:url(#uuid-2608d53a-21b0-4ac8-9091-c47fa25f0530);"><rect x="91.34" width="45.3" height="62.5" style="fill:#b55937;"/><path d="M101.89,40.04c18.91,2.48,24.69-1.24,22.15-20.73-1.28-9.81-15.59-9.2-23.19-7.42-1.42.33-2.73.92-3.91,1.78-1.51,7.44-5.31,25.02,4.94,26.37Z" style="fill:none;"/></g><g style="clip-path:url(#uuid-abb2158d-9320-42c1-a54e-351460506c68);"><rect x="47.93" width="45.3" height="62.5" style="fill:#e7e5de;"/><path d="M77.85,38.53c7.05-22.96-1.92-31.94-24.89-24.88-6.69,25.05-.2,31.58,24.89,24.88Z" style="fill:none;"/></g><g style="clip-path:url(#uuid-680966be-70e3-49c7-8dbe-82ee26bdc18f);"><rect x=".18" width="45.3" height="62.5" style="fill:#676464;"/><path d="M33.39,38.17c7.05-22.96-1.92-31.94-24.89-24.88-6.69,25.05-.2,31.58,24.89,24.88Z" style="fill:none;"/></g><path d="M389.59,19.56h.55l-4.71,22.22h5.33l-.24.51h-5.73l4.81-22.73Z" style="fill:#f5efe3;"/><path d="M401.03,29.62l-1.67,8.16c-.72,3.52-1.74,4.78-3.96,4.78-2.05,0-3.17-1.4-2.46-4.81l1.74-8.43c.68-3.31,1.98-4.44,3.82-4.44,2.18,0,3.21,1.47,2.53,4.74ZM395.23,29.25l-1.74,8.36c-.65,3.07.07,4.44,2.01,4.44,1.77,0,2.66-1.09,3.34-4.44l1.6-7.78c.75-3.58-.41-4.44-2.05-4.44-1.37,0-2.53.82-3.17,3.86Z" style="fill:#f5efe3;"/><path d="M404.1,30.99c.55-2.59.92-4.57,1.16-5.84h.51c-.03.2-.14.99-.58,3.07.75-1.95,2.53-3.24,4.03-3.34l-.14.58c-2.39.41-3.75,2.39-4.57,6.18l-2.25,10.65h-.55l2.39-11.3Z" style="fill:#f5efe3;"/><path d="M409.67,33.18l-.75,3.58c-.72,3.41-.51,5.29,1.81,5.29,2.08,0,2.59-1.95,3-3.75l.1-.41h.51l-.1.44c-.34,1.5-.82,4.23-3.62,4.23s-2.97-2.42-2.22-5.94l1.47-6.83c.92-4.3,2.53-4.92,3.92-4.92,1.78,0,3.24,1.09,2.32,5.29l-.68,3h-5.77ZM414.99,32.66l.55-2.32c.61-2.97.44-4.95-1.81-4.95-1.6,0-2.63,1.16-3.38,4.64l-.58,2.63h5.22Z" style="fill:#f5efe3;"/><path d="M419.26,29.59c.55-2.56.72-3.52.89-4.44h.51c-.03.2-.14.89-.41,2.22.48-1.19,1.4-2.49,3.11-2.49,1.47,0,2.22.82,2.15,2.53.58-1.47,1.6-2.53,3.21-2.53,1.26,0,2.8.65,2.12,3.93l-2.87,13.48h-.55l2.83-13.35c.38-1.81.27-3.55-1.6-3.55s-2.94,1.78-3.55,4.75l-2.56,12.15h-.55l2.8-13.18c.51-2.46.14-3.72-1.54-3.72-2.32,0-3.24,3.28-3.69,5.33l-2.46,11.57h-.55l2.7-12.7Z" style="fill:#f5efe3;"/><path d="M439.81,25.15h.55l-3.62,17.13h-.55l3.62-17.13ZM441.18,18.67h.55l-.61,2.83h-.55l.61-2.83Z" style="fill:#f5efe3;"/><path d="M441.45,39.66l-1.78,8.5h-.55l3.82-17.99c.51-2.39.85-3.86,1.06-5.02h.55c-.1.65-.27,1.37-.51,2.46.51-1.37,1.43-2.73,3.14-2.73,2.42,0,2.83,2.29,2.18,5.33l-1.54,7.24c-.92,4.3-2.25,5.12-3.96,5.12-2.18,0-2.42-1.88-2.42-2.9ZM447.29,37.44l1.54-7.27c.51-2.49.44-4.75-1.74-4.75-2.36,0-3.35,3.72-4.03,6.93l-.61,2.9c-.89,4.13-.99,6.76,1.57,6.76,1.16,0,2.42-.58,3.28-4.57Z" style="fill:#f5efe3;"/><path d="M450.63,37.92l-.1.48c-.38,1.74.17,3.65,2.12,3.65,1.67,0,2.59-1.23,2.97-3.14.41-2.15,0-3.69-1.47-5.29-1.77-1.95-2.49-3.34-2.05-5.53.34-1.74,1.23-3.21,3.11-3.21,2.46,0,2.8,2.05,2.53,3.86l-.07.44h-.55l.07-.41c.27-1.57.07-3.38-2.05-3.38-1.3,0-2.15.92-2.53,2.76-.38,1.84.2,3.17,1.81,4.95,1.47,1.64,2.25,3.31,1.71,5.91-.48,2.22-1.47,3.55-3.41,3.55-2.87,0-3.04-2.66-2.73-4.17l.1-.48h.55Z" style="fill:#f5efe3;"/><path d="M465.07,38.29c-.38,1.71-.68,3.28-.79,3.99h-.51c0-.27.21-1.43.44-2.36-.68,1.6-1.71,2.63-3.28,2.63-1.4,0-2.9-.62-2.18-4.03l2.83-13.38h.55l-2.8,13.24c-.51,2.32-.1,3.62,1.67,3.62,1.64,0,2.97-1.16,4.03-6.04l2.29-10.82h.55l-2.8,13.14Z" style="fill:#f5efe3;"/><path d="M470.5,29.59c.55-2.56.72-3.52.89-4.44h.51c-.03.2-.14.89-.41,2.22.48-1.19,1.4-2.49,3.11-2.49,1.47,0,2.22.82,2.15,2.53.58-1.47,1.6-2.53,3.21-2.53,1.26,0,2.8.65,2.12,3.93l-2.87,13.48h-.55l2.83-13.35c.38-1.81.27-3.55-1.6-3.55s-2.94,1.78-3.55,4.75l-2.56,12.15h-.55l2.8-13.18c.51-2.46.14-3.72-1.54-3.72-2.32,0-3.24,3.28-3.69,5.33l-2.46,11.57h-.55l2.7-12.7Z" style="fill:#f5efe3;"/></g></svg>