<?xml version="1.0" encoding="UTF-8"?><svg id="uuid-d8ce12e8-892a-47b6-9c5e-79672f83a65d" xmlns="http://www.w3.org/2000/svg" xmlns:xlink="http://www.w3.org/1999/xlink" viewBox="0 0 481.36 62.5"><defs><clipPath id="uuid-ecc34336-5b52-48fd-84a7-3e00cc4b6d78"><path d="M338.54,44.31c9.57-1.25,8.8-13.13,7.81-20.73-1.28-9.81-15.59-9.2-23.19-7.42-1.42.33-2.73.92-3.91,1.78-3.67,20.35-4.76,29.51,19.28,26.38Z" style="fill:none;"/></clipPath><clipPath id="uuid-e1d396ee-926f-4392-82ce-c9b8c4e03d98"><path d="M294.09,43.58c9.57-1.25,8.8-13.13,7.81-20.73-1.28-9.81-15.59-9.2-23.19-7.42-1.42.33-2.73.92-3.91,1.78-3.67,20.35-4.76,29.51,19.28,26.38Z" style="fill:none;"/></clipPath><clipPath id="uuid-ff6bb196-2048-4c4c-b50c-b940903b39f4"><path d="M249.63,43.58c9.57-1.25,8.8-13.13,7.81-20.73-1.28-9.81-15.59-9.2-23.19-7.42-1.42.33-2.73.92-3.91,1.78-3.67,20.35-4.76,29.51,19.28,26.38Z" style="fill:none;"/></clipPath><clipPath id="uuid-1671c286-44c2-41d3-a961-377ac5076df6"><path d="M205.17,43.58c9.57-1.25,8.8-13.13,7.81-20.73-1.28-9.81-15.59-9.2-23.19-7.42-1.42.33-2.73.92-3.91,1.78-3.67,20.35-4.76,29.51,19.28,26.38Z" style="fill:none;"/></clipPath><clipPath id="uuid-5653147d-a49c-4a74-b9c3-eff1a9ea4b66"><path d="M146.35,43.54c18.91,2.48,24.69-1.24,22.15-20.73-1.28-9.81-15.59-9.2-23.19-7.42-1.42.33-2.73.92-3.91,1.78-1.51,7.44-5.31,25.02,4.94,26.37Z" style="fill:none;"/></clipPath><clipPath id="uuid-1103a103-101a-4c77-b2d6-e1f8457607be"><path d="M101.89,43.54c18.91,2.48,24.69-1.24,22.15-20.73-1.28-9.81-15.59-9.2-23.19-7.42-1.42.33-2.73.92-3.91,1.78-1.51,7.44-5.31,25.02,4.94,26.37Z" style="fill:none;"/></clipPath><clipPath id="uuid-2cf45a3e-cda0-4419-b138-bfdf54e210b2"><path d="M77.85,42.03c7.05-22.96-1.92-31.94-24.89-24.88-6.69,25.05-.2,31.58,24.89,24.88Z" style="fill:none;"/></clipPath><clipPath id="uuid-03163d21-f404-4806-be93-6d6308534160"><path d="M33.39,41.66c7.05-22.96-1.92-31.94-24.89-24.88-6.69,25.05-.2,31.58,24.89,24.88Z" style="fill:none;"/></clipPath></defs><g id="uuid-8714a742-9446-4bc8-902a-294a5cd98045"><rect x=".5" y="11.76" width="358.05" height="33.26" style="fill:none; stroke:#f5efe3; stroke-miterlimit:10;"/><g style="clip-path:url(#uuid-ecc34336-5b52-48fd-84a7-3e00cc4b6d78);"><rect x="317.28" width="45.3" height="62.5" style="fill:#92988a;"/><path d="M338.54,44.31c9.57-1.25,8.8-13.13,7.81-20.73-1.28-9.81-15.59-9.2-23.19-7.42-1.42.33-2.73.92-3.91,1.78-3.67,20.35-4.76,29.51,19.28,26.38Z" style="fill:none;"/></g><g style="clip-path:url(#uuid-e1d396ee-926f-4392-82ce-c9b8c4e03d98);"><rect x="269.22" width="45.3" height="62.5" style="fill:#afac8a;"/><path d="M294.09,43.58c9.57-1.25,8.8-13.13,7.81-20.73-1.28-9.81-15.59-9.2-23.19-7.42-1.42.33-2.73.92-3.91,1.78-3.67,20.35-4.76,29.51,19.28,26.38Z" style="fill:none;"/></g><g style="clip-path:url(#uuid-ff6bb196-2048-4c4c-b50c-b940903b39f4);"><rect x="224.77" width="45.3" height="62.5" style="fill:#90856c;"/><path d="M249.63,43.58c9.57-1.25,8.8-13.13,7.81-20.73-1.28-9.81-15.59-9.2-23.19-7.42-1.42.33-2.73.92-3.91,1.78-3.67,20.35-4.76,29.51,19.28,26.38Z" style="fill:none;"/></g><g style="clip-path:url(#uuid-1671c286-44c2-41d3-a961-377ac5076df6);"><rect x="180.31" width="45.3" height="62.5" style="fill:#7c6759;"/><path d="M205.17,43.58c9.57-1.25,8.8-13.13,7.81-20.73-1.28-9.81-15.59-9.2-23.19-7.42-1.42.33-2.73.92-3.91,1.78-3.67,20.35-4.76,29.51,19.28,26.38Z" style="fill:none;"/></g><g style="clip-path:url(#uuid-5653147d-a49c-4a74-b9c3-eff1a9ea4b66);"><rect x="135.84" width="45.3" height="62.5" style="fill:#9b6c53;"/><path d="M146.35,43.54c18.91,2.48,24.69-1.24,22.15-20.73-1.28-9.81-15.59-9.2-23.19-7.42-1.42.33-2.73.92-3.91,1.78-1.51,7.44-5.31,25.02,4.94,26.37Z" style="fill:none;"/></g><g style="clip-path:url(#uuid-1103a103-101a-4c77-b2d6-e1f8457607be);"><rect x="91.34" width="45.3" height="62.5" style="fill:#b78a57;"/><path d="M101.89,43.54c18.91,2.48,24.69-1.24,22.15-20.73-1.28-9.81-15.59-9.2-23.19-7.42-1.42.33-2.73.92-3.91,1.78-1.51,7.44-5.31,25.02,4.94,26.37Z" style="fill:none;"/></g><g style="clip-path:url(#uuid-2cf45a3e-cda0-4419-b138-bfdf54e210b2);"><rect x="47.93" width="45.3" height="62.5" style="fill:#bbc3cb;"/><path d="M77.85,42.03c7.05-22.96-1.92-31.94-24.89-24.88-6.69,25.05-.2,31.58,24.89,24.88Z" style="fill:none;"/></g><g style="clip-path:url(#uuid-03163d21-f404-4806-be93-6d6308534160);"><rect x=".18" width="45.3" height="62.5" style="fill:#707665;"/><path d="M33.39,41.66c7.05-22.96-1.92-31.94-24.89-24.88-6.69,25.05-.2,31.58,24.89,24.88Z" style="fill:none;"/></g><path d="M388.2,23.35h.55l-4.71,22.22h5.33l-.24.51h-5.73l4.81-22.73Z" style="fill:#f5efe3;"/><path d="M399.64,33.42l-1.67,8.16c-.72,3.52-1.74,4.78-3.96,4.78-2.05,0-3.17-1.4-2.46-4.81l1.74-8.43c.68-3.31,1.98-4.44,3.82-4.44,2.18,0,3.21,1.47,2.53,4.74ZM393.83,33.04l-1.74,8.36c-.65,3.07.07,4.44,2.01,4.44,1.77,0,2.66-1.09,3.34-4.44l1.6-7.78c.75-3.58-.41-4.44-2.05-4.44-1.37,0-2.53.82-3.17,3.86Z" style="fill:#f5efe3;"/><path d="M402.71,34.78c.55-2.59.92-4.57,1.16-5.84h.51c-.03.2-.14.99-.58,3.07.75-1.95,2.53-3.24,4.03-3.34l-.14.58c-2.39.41-3.75,2.39-4.57,6.18l-2.25,10.65h-.55l2.39-11.3Z" style="fill:#f5efe3;"/><path d="M408.27,36.97l-.75,3.58c-.72,3.41-.51,5.29,1.81,5.29,2.08,0,2.59-1.95,3-3.75l.1-.41h.51l-.1.44c-.34,1.5-.82,4.23-3.62,4.23s-2.97-2.42-2.22-5.94l1.47-6.83c.92-4.3,2.53-4.92,3.92-4.92,1.78,0,3.24,1.09,2.32,5.29l-.68,3h-5.77ZM413.6,36.46l.55-2.32c.61-2.97.44-4.95-1.81-4.95-1.6,0-2.63,1.16-3.38,4.64l-.58,2.63h5.22Z" style="fill:#f5efe3;"/><path d="M417.87,33.38c.55-2.56.72-3.52.89-4.44h.51c-.03.2-.14.89-.41,2.22.48-1.19,1.4-2.49,3.11-2.49,1.47,0,2.22.82,2.15,2.53.58-1.47,1.6-2.53,3.21-2.53,1.26,0,2.8.65,2.12,3.93l-2.87,13.48h-.55l2.83-13.35c.38-1.81.27-3.55-1.6-3.55s-2.94,1.78-3.55,4.75l-2.56,12.15h-.55l2.8-13.18c.51-2.46.14-3.72-1.54-3.72-2.32,0-3.24,3.28-3.69,5.33l-2.46,11.57h-.55l2.7-12.7Z" style="fill:#f5efe3;"/><path d="M438.42,28.95h.55l-3.62,17.13h-.55l3.62-17.13ZM439.78,22.46h.55l-.61,2.83h-.55l.61-2.83Z" style="fill:#f5efe3;"/><path d="M440.06,43.45l-1.78,8.5h-.55l3.82-17.99c.51-2.39.85-3.86,1.06-5.02h.55c-.1.65-.27,1.37-.51,2.46.51-1.37,1.43-2.73,3.14-2.73,2.42,0,2.83,2.29,2.18,5.33l-1.54,7.24c-.92,4.3-2.25,5.12-3.96,5.12-2.18,0-2.42-1.88-2.42-2.9ZM445.89,41.24l1.54-7.27c.51-2.49.44-4.75-1.74-4.75-2.36,0-3.35,3.72-4.03,6.93l-.61,2.9c-.89,4.13-.99,6.76,1.57,6.76,1.16,0,2.42-.58,3.28-4.57Z" style="fill:#f5efe3;"/><path d="M449.24,41.71l-.1.48c-.38,1.74.17,3.65,2.12,3.65,1.67,0,2.59-1.23,2.97-3.14.41-2.15,0-3.69-1.47-5.29-1.77-1.95-2.49-3.35-2.05-5.53.34-1.74,1.23-3.21,3.11-3.21,2.46,0,2.8,2.05,2.53,3.86l-.07.44h-.55l.07-.41c.27-1.57.07-3.38-2.05-3.38-1.3,0-2.15.92-2.53,2.76-.38,1.84.2,3.17,1.81,4.95,1.47,1.64,2.25,3.31,1.71,5.9-.48,2.22-1.47,3.55-3.41,3.55-2.87,0-3.04-2.66-2.73-4.17l.1-.48h.55Z" style="fill:#f5efe3;"/><path d="M463.68,42.09c-.38,1.71-.68,3.28-.79,3.99h-.51c0-.27.21-1.43.44-2.36-.68,1.6-1.71,2.63-3.28,2.63-1.4,0-2.9-.62-2.18-4.03l2.83-13.38h.55l-2.8,13.24c-.51,2.32-.1,3.62,1.67,3.62,1.64,0,2.97-1.16,4.03-6.04l2.29-10.82h.55l-2.8,13.14Z" style="fill:#f5efe3;"/><path d="M469.11,33.38c.55-2.56.72-3.52.89-4.44h.51c-.03.2-.14.89-.41,2.22.48-1.19,1.4-2.49,3.11-2.49,1.47,0,2.22.82,2.15,2.53.58-1.47,1.6-2.53,3.21-2.53,1.26,0,2.8.65,2.12,3.93l-2.87,13.48h-.55l2.83-13.35c.38-1.81.27-3.55-1.6-3.55s-2.94,1.78-3.55,4.75l-2.56,12.15h-.55l2.8-13.18c.51-2.46.14-3.72-1.54-3.72-2.32,0-3.24,3.28-3.69,5.33l-2.46,11.57h-.55l2.7-12.7Z" style="fill:#f5efe3;"/></g></svg>