<?xml version="1.0" encoding="UTF-8"?><svg id="uuid-cfdb2fc1-0317-45ad-959d-8e3b87b7306f" xmlns="http://www.w3.org/2000/svg" xmlns:xlink="http://www.w3.org/1999/xlink" viewBox="0 0 44.64 61.58"><defs><clipPath id="uuid-7e612ef0-44e6-49f6-8707-6a0607433634"><path d="M24.51,42.94c9.43-1.23,8.67-12.94,7.7-20.43-1.26-9.66-15.36-9.06-22.85-7.31-1.39.33-2.69.9-3.85,1.75C1.89,37.01.82,46.03,24.51,42.94Z" style="fill:#68ff66;"/></clipPath></defs><g id="uuid-df94b1a2-617d-4cf2-b52d-4d84b62da3b4"><path d="M24.51,42.94c9.43-1.23,8.67-12.94,7.7-20.43-1.26-9.66-15.36-9.06-22.85-7.31-1.39.33-2.69.9-3.85,1.75C1.89,37.01.82,46.03,24.51,42.94Z" style="fill:#68ff66;"/><g style="clip-path:url(#uuid-7e612ef0-44e6-49f6-8707-6a0607433634);"><rect width="44.64" height="61.58" style="fill:#9aff99;"/><path d="M24.51,42.94c9.43-1.23,8.67-12.94,7.7-20.43-1.26-9.66-15.36-9.06-22.85-7.31-1.39.33-2.69.9-3.85,1.75C1.89,37.01.82,46.03,24.51,42.94Z" style="fill:none;"/></g></g></svg>