<?xml version="1.0" encoding="UTF-8"?><svg id="uuid-38b16e65-3c9c-4d58-839e-1e0369e76f10" xmlns="http://www.w3.org/2000/svg" viewBox="0 0 336.56 68.25"><g id="uuid-dbbcf66c-629b-4a4f-8e1a-2b047bbf916b"><path d="M181.59,40.12c7.42-1.74,21.39-2.33,22.63,7.24,2.47,19.02-3.16,22.65-21.62,20.23-10.01-1.31-6.3-18.48-4.82-25.74,1.14-.84,2.43-1.41,3.81-1.73Z" style="fill:#f0f;"/><path d="M137.66,40.12c7.42-1.74,21.39-2.33,22.63,7.24,2.47,19.02-3.16,22.65-21.62,20.23-10.01-1.31-6.3-18.48-4.82-25.74,1.14-.84,2.43-1.41,3.81-1.73Z" style="fill:#ffff05;"/><path d="M93.81,40.01c4.74-1.11,17.4-1.49,20.46,2.48,3.17,7.33,5.45,23.6-5.45,25-23.89,3.06-22.19-5.38-18.82-25.74,1.14-.84,2.43-1.41,3.81-1.73Z" style="fill:blue;"/><path d="M269.46,40.16c7.42-1.73,21.39-2.33,22.63,7.24.97,7.42,1.71,19.02-7.62,20.24-23.46,3.06-22.4-5.88-18.82-25.74,1.14-.84,2.43-1.41,3.81-1.73Z"/><path d="M225.54,40.16c7.42-1.73,21.39-2.33,22.63,7.24.97,7.42,1.71,19.02-7.62,20.24-23.46,3.06-22.4-5.88-18.82-25.74,1.14-.84,2.43-1.41,3.81-1.73Z" style="fill:#03ffff;"/><path d="M313.38,40.16c7.42-1.73,21.39-2.33,22.63,7.24.97,7.42,1.71,19.02-7.62,20.24-23.46,3.06-22.4-5.88-18.82-25.74,1.14-.84,2.43-1.41,3.81-1.73Z" style="fill:#fff;"/><path d="M70.75,65.31c-24.48,6.53-30.82.16-24.29-24.29,22.42-6.88,31.18,1.88,24.29,24.29Z" style="fill:#03ff00;"/><path d="M26.83,65.76c-24.48,6.53-30.82.16-24.29-24.29,22.42-6.88,31.18,1.88,24.29,24.29Z" style="fill:red;"/><path d="M4.29,23.83L.49,4.78h1.69c1.48,7.62,2.81,14.56,3.04,16.83h.03c.26-2.27,2.48-12.17,3.42-16.83h1.63c.93,4.57,3.13,14.7,3.35,16.78h.06c.4-3.1,2.43-12.18,3.32-16.78h1.62l-4.14,19.05h-1.8c-.89-4.48-2.92-14.09-3.26-16.63h-.03c-.39,2.83-2.42,12.12-3.38,16.63h-1.75Z" style="fill:#f5efe3;"/><path d="M20.86,16.99c0,3.13.57,5.7,2.97,5.7s2.75-2.37,2.83-2.77h1.57c-.03.33-.46,4.17-4.4,4.17s-4.55-3.79-4.55-7.27c0-4.46,1.46-7.3,4.67-7.3,3.56,0,4.39,3.05,4.39,6.51,0,.18,0,.58-.03.97h-7.44ZM26.75,15.68c0-2.82-.65-4.77-2.83-4.77-2.85,0-2.98,3.83-3.03,4.77h5.85Z" style="fill:#f5efe3;"/><path d="M31.1,3.88h1.57v7.91c.43-1.15,1.43-2.28,3.45-2.28,2.62,0,4.12,2.15,4.12,6.93,0,4.31-1.19,7.62-4.49,7.62-1.79,0-2.68-.9-3.12-2,0,.52-.03,1.16-.08,1.77h-1.47c.03-.68.03-1.99.03-3.83V3.88ZM38.61,16.47c0-3.83-.99-5.53-2.82-5.53-2.4,0-3.19,2.23-3.19,5.85,0,3.41.59,5.83,2.96,5.83,2.01,0,3.05-1.97,3.05-6.16Z" style="fill:#f5efe3;"/><path d="M58.08,18.66c-.08,1.16-.61,5.44-4.98,5.44-4.94,0-5.24-5.58-5.24-9.96,0-5.31,1.34-9.61,5.48-9.61,4.42,0,4.63,4.29,4.66,5.32h-1.64c-.03-.64-.18-3.83-3.06-3.83-3.32,0-3.76,4.64-3.76,8.11,0,4.18.48,8.5,3.6,8.5,2.73,0,3.19-2.91,3.28-3.96h1.65Z" style="fill:#f5efe3;"/><path d="M69.59,16.6c0,4.9-1.59,7.48-4.67,7.48s-4.69-2.5-4.69-7.45,1.84-7.13,4.75-7.13,4.61,2.36,4.61,7.09ZM61.86,16.66c0,4.14,1.13,6.03,3.07,6.03s3.05-1.93,3.05-6.06c0-3.79-1.04-5.7-3.05-5.7-1.9,0-3.06,1.63-3.06,5.74Z" style="fill:#f5efe3;"/><path d="M72.37,23.83V3.88h1.57v19.95h-1.57Z" style="fill:#f5efe3;"/><path d="M86.11,16.6c0,4.9-1.59,7.48-4.67,7.48s-4.69-2.5-4.69-7.45,1.84-7.13,4.75-7.13,4.61,2.36,4.61,7.09ZM78.38,16.66c0,4.14,1.13,6.03,3.07,6.03s3.05-1.93,3.05-6.06c0-3.79-1.04-5.7-3.05-5.7-1.9,0-3.06,1.63-3.06,5.74Z" style="fill:#f5efe3;"/><path d="M88.89,14.55c0-2.22,0-3.8-.03-4.81h1.52c.03.41.06,1.09.06,2.59.63-1.74,2.03-2.77,3.74-2.79v1.71c-2.47.13-3.72,1.97-3.72,4.53v8.05h-1.57v-9.28Z" style="fill:#f5efe3;"/><path d="M96.81,19.85c.12,1.71,1.03,2.88,2.75,2.88s2.54-1.07,2.54-2.5c0-1.63-.86-2.35-2.78-3.11-2.75-1.08-3.62-2.07-3.62-4.01s1.14-3.6,3.83-3.6c2.94,0,3.84,1.99,3.86,3.87h-1.57c-.05-.73-.24-2.51-2.35-2.51-1.51,0-2.17.93-2.17,2.17s.49,1.82,2.54,2.63c2.62,1.03,3.86,1.98,3.86,4.44s-1.56,3.98-4.24,3.98-4.14-1.66-4.24-4.23h1.58Z" style="fill:#f5efe3;"/></g></svg>